<svg height="600" width="700" xmlns="http://www.w3.org/2000/svg">
<title>Your Diagram Title</title>
<!-- Generated with SankeyMATIC: 4/27/2026, 3:31:02 PM -->
<g transform="translate(106.18002,18)">
<g id="sankey_flows">
<path id="flow14" d="M323.59452 167.7666C361.02475 167.7666 361.02475 56.59094 398.45498 56.59094" fill="none" stroke-width="88.06625" stroke="#ff7f0e" opacity="0.45"><title>Puerto Rico Grid → Commercial Sector: 9.4</title></path>
<path id="flow15" d="M323.59452 252.08535C357.52475 252.08535 357.52475 281.92462 391.45498 281.92462" fill="none" stroke-width="80.57125" stroke="#2ca02c" opacity="0.45"><title>Puerto Rico Grid → Residential Sector: 8.6</title></path>
<path id="flow0" d="M11 95.05646C69.07583 95.05646 69.07583 44.6375 127.15166 44.6375" fill="none" stroke-width="53.40188" stroke="#1f77b4" opacity="0.45"><title>Petroleum → Aguirre Power Complex: 5.7</title></path>
<path id="flow7" d="M138.15166 44.6375C225.37309 44.6375 225.37309 150.43441 312.59452 150.43441" fill="none" stroke-width="53.40188" stroke="#ff7f0e" opacity="0.45"><title>Aguirre Power Complex → Puerto Rico Grid: 5.7</title></path>
<path id="flow3" d="M11 283.37879C57.16861 283.37879 57.16861 255.53485 103.33722 255.53485" fill="none" stroke-width="31.85375" stroke="#9467bd" opacity="0.45"><title>Natural Gas → Costa Sur: 3.4</title></path>
<path id="flow10" d="M114.33722 255.53485C213.46587 255.53485 213.46587 240.84285 312.59452 240.84285" fill="none" stroke-width="31.85375" stroke="#8c564b" opacity="0.45"><title>Costa Sur → Puerto Rico Grid: 3.4</title></path>
<path id="flow1" d="M11 136.27896C55.26139 136.27896 55.26139 130.98531 99.52277 130.98531" fill="none" stroke-width="29.04313" stroke="#1f77b4" opacity="0.45"><title>Petroleum → San Juan &amp; Palo Seco: 3.1</title></path>
<path id="flow8" d="M110.52277 130.98531C211.55865 130.98531 211.55865 191.65691 312.59452 191.65691" fill="none" stroke-width="29.04313" stroke="#2ca02c" opacity="0.45"><title>San Juan &amp; Palo Seco → Puerto Rico Grid: 3.1</title></path>
<path id="flow17" d="M402.45498 255.69212C415.53081 255.69212 415.53081 218.28713 428.60664 218.28713" fill="none" stroke-width="28.10625" stroke="#9467bd" opacity="0.45"><title>Residential Sector → Caguas Residents: 3.0</title></path>
<path id="flow4" d="M11 312.42192C43.26139 312.42192 43.26139 336.69938 75.52277 336.69938" fill="none" stroke-width="26.2325" stroke="#9467bd" opacity="0.45"><title>Natural Gas → EcoEléctrica: 2.8</title></path>
<path id="flow11" d="M86.52277 336.69938C199.55865 336.69938 199.55865 269.88598 312.59452 269.88598" fill="none" stroke-width="26.2325" stroke="#e377c2" opacity="0.45"><title>EcoEléctrica → Puerto Rico Grid: 2.8</title></path>
<path id="flow18" d="M409.45498 89.38156C419.03081 89.38156 419.03081 127.86619 428.60664 127.86619" fill="none" stroke-width="22.485" stroke="#9467bd" opacity="0.45"><title>Commercial Sector → Caguas Businesses: 2.4</title></path>
<path id="flow2" d="M11 160.16927C51.44694 160.16927 51.44694 190.03671 91.89389 190.03671" fill="none" stroke-width="18.7375" stroke="#1f77b4" opacity="0.45"><title>Petroleum → Mayagüez &amp; Others: 2.0</title></path>
<path id="flow5" d="M11 410.96405C48.22943 410.96405 48.22943 416.21712 85.45887 416.21712" fill="none" stroke-width="18.7375" stroke="#7f7f7f" opacity="0.45"><title>Coal → AES Coal Plant: 2.0</title></path>
<path id="flow9" d="M102.89389 190.03671C207.7442 190.03671 207.7442 215.54723 312.59452 215.54723" fill="none" stroke-width="18.7375" stroke="#d62728" opacity="0.45"><title>Mayagüez &amp; Others → Puerto Rico Grid: 2.0</title></path>
<path id="flow12" d="M96.45887 416.21712C204.52669 416.21712 204.52669 292.37098 312.59452 292.37098" fill="none" stroke-width="18.7375" stroke="#bcbd22" opacity="0.45"><title>AES Coal Plant → Puerto Rico Grid: 2.0</title></path>
<path id="flow16" d="M323.59452 301.73973C360.02475 301.73973 360.02475 416.51613 396.45498 416.51613" fill="none" stroke-width="18.7375" stroke="#d62728" opacity="0.45"><title>Puerto Rico Grid → Industrial Sector: 2.0</title></path>
<path id="flow6" d="M30 500.30395C76.57583 500.30395 76.57583 478.18324 123.15166 478.18324" fill="none" stroke-width="9.36875" stroke="#17becf" opacity="0.45"><title>Renewables → Renewables Node: 1.0</title></path>
<path id="flow13" d="M134.15166 478.18324C223.37309 478.18324 223.37309 306.4241 312.59452 306.4241" fill="none" stroke-width="9.36875" stroke="#17becf" opacity="0.45"><title>Renewables Node → Puerto Rico Grid: 1.0</title></path>
</g>
<g id="sankey_nodes">
<g class="node">
<rect id="r0" class="for_r0" x="0" y="41.55975" height="101.1825" width="11" fill="#1f77b4" fill-opacity="1" transform="translate(0,26.79577)"><title>Petroleum:
10.8</title></rect>
</g>
<g class="node">
<rect id="r1" class="for_r1" x="107.15166" y="0.93656" height="53.40188" width="11" fill="#ff7f0e" fill-opacity="1" transform="translate(20,17)"><title>Aguirre Power Complex:
5.7</title></rect>
</g>
<g class="node">
<rect id="r2" class="for_r2" x="107.15166" y="116.46375" height="29.04313" width="11" fill="#2ca02c" fill-opacity="1" transform="translate(-7.62889,0)"><title>San Juan &amp; Palo Seco:
3.1</title></rect>
</g>
<g class="node">
<rect id="r3" class="for_r3" x="107.15166" y="207.63219" height="18.7375" width="11" fill="#d62728" fill-opacity="1" transform="translate(-15.25777,-26.96423)"><title>Mayagüez &amp; Others:
2.0</title></rect>
</g>
<g class="node">
<rect id="r4" class="for_r4" x="0" y="316.33314" height="58.08625" width="11" fill="#9467bd" fill-opacity="1" transform="translate(0,-48.88123)"><title>Natural Gas:
6.2</title></rect>
</g>
<g class="node">
<rect id="r5" class="for_r5" x="107.15166" y="288.495" height="31.85375" width="11" fill="#8c564b" fill-opacity="1" transform="translate(-3.81444,-48.88702)"><title>Costa Sur:
3.4</title></rect>
</g>
<g class="node">
<rect id="r6" class="for_r6" x="107.15166" y="382.47406" height="26.2325" width="11" fill="#e377c2" fill-opacity="1" transform="translate(-31.62889,-58.89093)"><title>EcoEléctrica:
2.8</title></rect>
</g>
<g class="node">
<rect id="r7" class="for_r7" x="0" y="470.83188" height="18.7375" width="11" fill="#7f7f7f" fill-opacity="1" transform="translate(0,-69.23657)"><title>Coal:
2.0</title></rect>
</g>
<g class="node">
<rect id="r8" class="for_r8" x="107.15166" y="470.83188" height="18.7375" width="11" fill="#bcbd22" fill-opacity="1" transform="translate(-21.69279,-63.98351)"><title>AES Coal Plant:
2.0</title></rect>
</g>
<g class="node">
<rect id="r9" class="for_r9" x="0" y="551.69469" height="9.36875" width="11" fill="#17becf" fill-opacity="1" transform="translate(19,-56.07511)"><title>Renewables:
1.0</title></rect>
</g>
<g class="node">
<rect id="r10" class="for_r10" x="107.15166" y="551.69469" height="9.36875" width="11" fill="#17becf" fill-opacity="1" transform="translate(16,-78.19582)"><title>Renewables Node:
1.0</title></rect>
</g>
<g class="node">
<rect id="r11" class="for_r11" x="214.30332" y="141.15587" height="187.375" width="11" fill="#1f77b4" fill-opacity="1" transform="translate(98.2912,-17.42239)"><title>Puerto Rico Grid:
20.0</title></rect>
</g>
<g class="node">
<rect id="r12" class="for_r12" x="321.45498" y="104.25926" height="88.06625" width="11" fill="#ff7f0e" fill-opacity="1" transform="translate(77,-91.70144)"><title>Commercial Sector:
9.4</title></rect>
</g>
<g class="node">
<rect id="r13" class="for_r13" x="321.45498" y="254.45082" height="80.57125" width="11" fill="#2ca02c" fill-opacity="1" transform="translate(70,-12.81182)"><title>Residential Sector:
8.6</title></rect>
</g>
<g class="node">
<rect id="r14" class="for_r14" x="321.45498" y="397.14738" height="18.7375" width="11" fill="#d62728" fill-opacity="1" transform="translate(75,10)"><title>Industrial Sector:
2.0</title></rect>
</g>
<g class="node">
<rect id="r15" class="for_r15" x="428.60664" y="254.23399" height="28.10625" width="11" fill="#9467bd" fill-opacity="1" transform="translate(0,-49.99998)"><title>Caguas Residents:
3.0</title></rect>
</g>
<g class="node">
<rect id="r16" class="for_r16" x="428.60664" y="169.62368" height="22.485" width="11" fill="#9467bd" fill-opacity="1" transform="translate(0,-52.99998)"><title>Caguas Businesses:
2.4</title></rect>
</g>
</g>
<g id="sankey_labels" font-family="sans-serif" font-size="16px" fill="#000000">
<text text-anchor="middle" x="243.81998" y="577" font-size="12px" font-weight="400" fill="#336781">Made at SankeyMATIC.com</text>
<rect id="label0_bg" class="for_r0" x="-79.54667" y="70.241" width="78.4" height="43.32001" rx="4" fill="#fff" fill-opacity="0.75" stroke="none" stroke-width="0" stroke-opacity="0" transform="translate(0,26.79577)"></rect>
<text id="label0" class="for_r0" text-anchor="end" x="-7.51333" y="92.151" font-weight="400" font-size="14.4px" dy="-4.91" transform="translate(0,26.79577)">Petroleum<tspan x="-7.51333" dy="19.32" font-weight="400" font-size="17.6px">10.8</tspan></text>
<rect id="label1_bg" class="for_r1" x="30.21832" y="5.7275" width="164.86666" height="43.32" rx="4" fill="#fff" fill-opacity="0.75" stroke="none" stroke-width="0" stroke-opacity="0" transform="translate(20,17)"></rect>
<text id="label1" class="for_r1" text-anchor="middle" x="112.65166" y="27.6375" font-weight="400" font-size="14.4px" dy="-4.91" transform="translate(20,17)">Aguirre Power Complex<tspan x="112.65166" dy="19.32" font-weight="400" font-size="17.6px">5.7</tspan></text>
<rect id="label2_bg" class="for_r2" x="34.20999" y="109.0753" width="156.88333" height="43.32001" rx="4" fill="#fff" fill-opacity="0.75" stroke="none" stroke-width="0" stroke-opacity="0" transform="translate(-7.62889,0)"></rect>
<text id="label2" class="for_r2" text-anchor="middle" x="112.65166" y="130.98531" font-weight="400" font-size="14.4px" dy="-4.91" transform="translate(-7.62889,0)">San Juan &amp; Palo Seco<tspan x="112.65166" dy="19.32" font-weight="400" font-size="17.6px">3.1</tspan></text>
<rect id="label3_bg" class="for_r3" x="42.62666" y="195.09094" width="140.05001" height="43.32001" rx="4" fill="#fff" fill-opacity="0.75" stroke="none" stroke-width="0" stroke-opacity="0" transform="translate(-15.25777,-26.96423)"></rect>
<text id="label3" class="for_r3" text-anchor="middle" x="112.65166" y="217.00094" font-weight="400" font-size="14.4px" dy="-4.91" transform="translate(-15.25777,-26.96423)">Mayagüez &amp; Others<tspan x="112.65166" dy="19.32" font-weight="400" font-size="17.6px">2.0</tspan></text>
<rect id="label4_bg" class="for_r4" x="-90.74666" y="323.46628" width="89.6" height="43.32001" rx="4" fill="#fff" fill-opacity="0.75" stroke="none" stroke-width="0" stroke-opacity="0" transform="translate(0,-48.88123)"></rect>
<text id="label4" class="for_r4" text-anchor="end" x="-7.51333" y="345.37627" font-weight="400" font-size="14.4px" dy="-4.91" transform="translate(0,-48.88123)">Natural Gas<tspan x="-7.51333" dy="19.32" font-weight="400" font-size="17.6px">6.2</tspan></text>
<rect id="label5_bg" class="for_r5" x="74.25999" y="282.51187" width="76.78334" height="43.32001" rx="4" fill="#fff" fill-opacity="0.75" stroke="none" stroke-width="0" stroke-opacity="0" transform="translate(-3.81444,-48.88702)"></rect>
<text id="label5" class="for_r5" text-anchor="middle" x="112.65166" y="304.42188" font-weight="400" font-size="14.4px" dy="-4.91" transform="translate(-3.81444,-48.88702)">Costa Sur<tspan x="112.65166" dy="19.32" font-weight="400" font-size="17.6px">3.4</tspan></text>
<rect id="label6_bg" class="for_r6" x="66.25999" y="373.6803" width="92.78334" height="43.32001" rx="4" fill="#fff" fill-opacity="0.75" stroke="none" stroke-width="0" stroke-opacity="0" transform="translate(-31.62889,-58.89093)"></rect>
<text id="label6" class="for_r6" text-anchor="middle" x="112.65166" y="395.59031" font-weight="400" font-size="14.4px" dy="-4.91" transform="translate(-31.62889,-58.89093)">EcoEléctrica<tspan x="112.65166" dy="19.32" font-weight="400" font-size="17.6px">2.8</tspan></text>
<rect id="label7_bg" class="for_r7" x="-43.51333" y="458.29062" width="42.36667" height="43.32001" rx="4" fill="#fff" fill-opacity="0.75" stroke="none" stroke-width="0" stroke-opacity="0" transform="translate(0,-69.23657)"></rect>
<text id="label7" class="for_r7" text-anchor="end" x="-7.51333" y="480.20063" font-weight="400" font-size="14.4px" dy="-4.91" transform="translate(0,-69.23657)">Coal<tspan x="-7.51333" dy="19.32" font-weight="400" font-size="17.6px">2.0</tspan></text>
<rect id="label8_bg" class="for_r8" x="56.65166" y="458.29062" width="112" height="43.32001" rx="4" fill="#fff" fill-opacity="0.75" stroke="none" stroke-width="0" stroke-opacity="0" transform="translate(-21.69279,-63.98351)"></rect>
<text id="label8" class="for_r8" text-anchor="middle" x="112.65166" y="480.20063" font-weight="400" font-size="14.4px" dy="-4.91" transform="translate(-21.69279,-63.98351)">AES Coal Plant<tspan x="112.65166" dy="19.32" font-weight="400" font-size="17.6px">2.0</tspan></text>
<rect id="label9_bg" class="for_r9" x="-93.18" y="534.46912" width="92.03334" height="43.31995" rx="4" fill="#fff" fill-opacity="0.75" stroke="none" stroke-width="0" stroke-opacity="0" transform="translate(19,-56.07511)"></rect>
<text id="label9" class="for_r9" text-anchor="end" x="-7.51333" y="556.37906" font-weight="400" font-size="14.4px" dy="-4.91" transform="translate(19,-56.07511)">Renewables<tspan x="-7.51333" dy="19.32" font-weight="400" font-size="17.6px">1.0</tspan></text>
<rect id="label10_bg" class="for_r10" x="47.40999" y="534.46912" width="130.48333" height="43.31995" rx="4" fill="#fff" fill-opacity="0.75" stroke="none" stroke-width="0" stroke-opacity="0" transform="translate(16,-78.19582)"></rect>
<text id="label10" class="for_r10" text-anchor="middle" x="112.65166" y="556.37906" font-weight="400" font-size="14.4px" dy="-4.91" transform="translate(16,-78.19582)">Renewables Node<tspan x="112.65166" dy="19.32" font-weight="400" font-size="17.6px">1.0</tspan></text>
<rect id="label11_bg" class="for_r11" x="160.19498" y="212.93336" width="119.21667" height="43.32001" rx="4" fill="#fff" fill-opacity="0.75" stroke="none" stroke-width="0" stroke-opacity="0" transform="translate(98.2912,-17.42239)"></rect>
<text id="label11" class="for_r11" text-anchor="middle" x="219.80332" y="234.84337" font-weight="400" font-size="14.4px" dy="-4.91" transform="translate(98.2912,-17.42239)">Puerto Rico Grid<tspan x="219.80332" dy="19.32" font-weight="400" font-size="17.6px">20.0</tspan></text>
<rect id="label12_bg" class="for_r12" x="259.34665" y="126.38237" width="135.21667" height="43.32001" rx="4" fill="#fff" fill-opacity="0.75" stroke="none" stroke-width="0" stroke-opacity="0" transform="translate(77,-91.70144)"></rect>
<text id="label12" class="for_r12" text-anchor="middle" x="326.95498" y="148.29238" font-weight="400" font-size="14.4px" dy="-4.91" transform="translate(77,-91.70144)">Commercial Sector<tspan x="326.95498" dy="19.32" font-weight="400" font-size="17.6px">9.4</tspan></text>
<rect id="label13_bg" class="for_r13" x="262.12998" y="272.82645" width="129.64999" height="43.32001" rx="4" fill="#fff" fill-opacity="0.75" stroke="none" stroke-width="0" stroke-opacity="0" transform="translate(70,-12.81182)"></rect>
<text id="label13" class="for_r13" text-anchor="middle" x="326.95498" y="294.73644" font-weight="400" font-size="14.4px" dy="-4.91" transform="translate(70,-12.81182)">Residential Sector<tspan x="326.95498" dy="19.32" font-weight="400" font-size="17.6px">8.6</tspan></text>
<rect id="label14_bg" class="for_r14" x="333.60166" y="384.60614" width="116.83334" height="43.32001" rx="4" fill="#fff" fill-opacity="0.75" stroke="none" stroke-width="0" stroke-opacity="0" transform="translate(75,10)"></rect>
<text id="label14" class="for_r14" text-anchor="start" x="339.96831" y="406.51613" font-weight="400" font-size="14.4px" dy="-4.91" transform="translate(75,10)">Industrial Sector<tspan x="339.96831" dy="19.32" font-weight="400" font-size="17.6px">2.0</tspan></text>
<rect id="label15_bg" class="for_r15" x="440.7533" y="246.37711" width="130.46664" height="43.32001" rx="4" fill="#fff" fill-opacity="0.75" stroke="none" stroke-width="0" stroke-opacity="0" transform="translate(0,-49.99998)"></rect>
<text id="label15" class="for_r15" text-anchor="start" x="447.11997" y="268.28712" font-weight="400" font-size="14.4px" dy="-4.91" transform="translate(0,-49.99998)">Caguas Residents<tspan x="447.11997" dy="19.32" font-weight="400" font-size="17.6px">3.0</tspan></text>
<rect id="label16_bg" class="for_r16" x="440.7533" y="158.95618" width="140.06668" height="43.32001" rx="4" fill="#fff" fill-opacity="0.75" stroke="none" stroke-width="0" stroke-opacity="0" transform="translate(0,-52.99998)"></rect>
<text id="label16" class="for_r16" text-anchor="start" x="447.11997" y="180.86618" font-weight="400" font-size="14.4px" dy="-4.91" transform="translate(0,-52.99998)">Caguas Businesses<tspan x="447.11997" dy="19.32" font-weight="400" font-size="17.6px">2.4</tspan></text>
</g>
</g></svg>